<?xml version="1.0"?>
<svg version="1.1" id="圖層_1" xmlns="http://www.w3.org/2000/svg" x="0" y="0" viewBox="0 0 100 100" xml:space="preserve"><g><path d="M50 75.1c-13.9 0-25.1-11.3-25.1-25.1S36.1 24.9 50 24.9 75.1 36.1 75.1 50 63.9 75.1 50 75.1z" fill="#f5e169"/><path d="M50 26.3c13.1 0 23.7 10.6 23.7 23.7S63.1 73.7 50 73.7 26.3 63.1 26.3 50 36.9 26.3 50 26.3m0-2.9c-14.7 0-26.6 11.9-26.6 26.6S35.3 76.6 50 76.6 76.6 64.7 76.6 50 64.7 23.4 50 23.4z" fill="#f8b26a"/></g><g><path fill="#f8b26a" d="M47.9 23.4L50 10l2.1 13.4z"/></g><g><path fill="#f8b26a" d="M34.9 28.1L30 15.4l8.6 10.5z"/></g><g><path fill="#f8b26a" d="M25.9 38.6L15.4 30l12.7 4.9z"/></g><g><path fill="#f8b26a" d="M23.4 52.1L10 50l13.4-2.1z"/></g><g><path fill="#f8b26a" d="M28.1 65.1L15.4 70l10.5-8.6z"/></g><g><path fill="#f8b26a" d="M38.6 74.1L30 84.6l4.9-12.7z"/></g><g><path fill="#f8b26a" d="M52.1 76.6L50 90l-2.1-13.4z"/></g><g><path fill="#f8b26a" d="M65.1 71.9L70 84.6l-8.6-10.5z"/></g><g><path fill="#f8b26a" d="M74.1 61.4L84.6 70l-12.7-4.9z"/></g><g><path fill="#f8b26a" d="M76.6 47.9L90 50l-13.4 2.1z"/></g><g><path fill="#f8b26a" d="M71.9 34.9L84.6 30l-10.5 8.6z"/></g><g><path fill="#f8b26a" d="M61.4 25.9L70 15.4l-4.9 12.7z"/></g><metadata xmlns:d="https://loading.io/stock/"><d:name>sun</d:name><d:tags>star,solar system,sun,astrology</d:tags><d:license>pro</d:license><d:slug>6ulwvc</d:slug></metadata></svg>